<?xml version="1.0" encoding="UTF-8" standalone="no"?>
<!-- Created with Inkscape (http://www.inkscape.org/) -->

<svg
   xmlns:dc="http://purl.org/dc/elements/1.1/"
   xmlns:cc="http://creativecommons.org/ns#"
   xmlns:rdf="http://www.w3.org/1999/02/22-rdf-syntax-ns#"
   xmlns:svg="http://www.w3.org/2000/svg"
   xmlns="http://www.w3.org/2000/svg"
   xmlns:sodipodi="http://sodipodi.sourceforge.net/DTD/sodipodi-0.dtd"
   xmlns:inkscape="http://www.inkscape.org/namespaces/inkscape"
   width="150"
   height="35"
   id="svg3414"
   version="1.1"
   inkscape:version="0.91 r13725"
   sodipodi:docname="churchofengland-logo.svg"
   inkscape:export-filename="/home/db9052/church/web-new/churchofengland-logo.png"
   inkscape:export-xdpi="90"
   inkscape:export-ydpi="90">
  <defs
     id="defs3416" />
  <sodipodi:namedview
     id="base"
     pagecolor="#ffffff"
     bordercolor="#666666"
     borderopacity="1.0"
     inkscape:pageopacity="0.0"
     inkscape:pageshadow="2"
     inkscape:zoom="3.959798"
     inkscape:cx="88.359668"
     inkscape:cy="15.901777"
     inkscape:document-units="px"
     inkscape:current-layer="layer1"
     showgrid="false"
     units="mm"
     fit-margin-top="2"
     fit-margin-left="2"
     fit-margin-right="2"
     fit-margin-bottom="2"
     inkscape:window-width="3200"
     inkscape:window-height="1671"
     inkscape:window-x="0"
     inkscape:window-y="55"
     inkscape:window-maximized="1" />
  <metadata
     id="metadata3419">
    <rdf:RDF>
      <cc:Work
         rdf:about="">
        <dc:format>image/svg+xml</dc:format>
        <dc:type
           rdf:resource="http://purl.org/dc/dcmitype/StillImage" />
        <dc:title></dc:title>
      </cc:Work>
    </rdf:RDF>
  </metadata>
  <g
     inkscape:label="Layer 1"
     inkscape:groupmode="layer"
     id="layer1"
     transform="translate(130.46342,-432.87484)">
    <path
       inkscape:connector-curvature="0"
       d="m 6.7164653,465.01383 c 0.067883,-2.26283 0.067883,-3.58969 0.067883,-5.88647 0,-2.48379 0,-3.87899 -0.067883,-6.31175 l 3.5896977,0 c 4.389231,0 7.230417,1.8715 7.230417,5.66529 0,4.066 -2.551897,6.53294 -7.196475,6.53294 l -3.6236397,0 z m 1.5141024,-6.22678 c 0,1.76945 0,3.48765 0.034164,5.03591 0.2719842,0.0171 1.3097814,0.0171 1.9393813,0.0171 3.793794,0 5.784201,-1.65032 5.784201,-5.06985 0,-3.21544 -2.211587,-4.78057 -6.0053834,-4.78057 l -1.7182003,0 c -0.034164,1.22483 -0.034164,2.92615 -0.034164,4.79744 m -5.208688,-5.97137 1.4291349,0 c -0.068109,2.44984 -0.068109,3.82796 -0.068109,6.31175 0,2.29655 0,3.62364 0.068109,5.88647 l -1.2929191,0 c -2.67103129,-3.77695 -5.4951363,-7.70695 -7.4347419,-10.2928 0,4.81451 0.017075,7.07736 0.085191,10.2928 l -1.4291349,0 c 0.068109,-2.26283 0.068109,-3.58992 0.068109,-5.88647 0,-2.48379 0,-3.87899 -0.068109,-6.31175 l 1.6163719,0 c 2.840965,3.75984 5.4949144,7.38349 7.1112869,9.69734 0,-4.45733 0,-6.72018 -0.085189,-9.69735 m -22.3275991,12.19816 c 1.497019,-2.99425 4.014975,-8.5575 5.597186,-12.28318 l 1.497019,0 c 1.327086,3.5045 3.2664669,8.31923 5.0188319,12.28318 l -1.6500942,0 c -0.5273286,-1.24188 -1.0719619,-2.58606 -1.6163727,-3.89584 l -5.597186,0 c -0.629378,1.36103 -1.241896,2.70497 -1.803389,3.89584 l -1.445995,0 z m 3.759851,-5.03568 4.661437,0 c -0.816616,-2.04165 -1.565124,-4.06622 -2.211586,-5.75048 -0.663543,1.65031 -1.565127,3.70883 -2.449851,5.75048 m -10.132525,3.86181 c 1.837333,0 4.57647,-0.0171 5.835448,-0.0681 l -0.561493,1.2419 -6.822222,0 c 0.06811,-2.26261 0.06811,-3.58969 0.06811,-5.88625 0,-2.48402 0,-3.87898 -0.06811,-6.31175 l 1.58221,0 c -0.06788,2.43277 -0.06788,3.82773 -0.06788,6.31175 0,1.85442 0,3.07923 0.03394,4.71246 m -4.415431,0.68047 c -1.241896,0.49339 -2.551899,0.68062 -4.25324,0.68062 -3.266467,0 -6.379859,-2.4159 -6.379859,-5.95458 0,-3.91292 2.65417,-6.63497 6.90741,-6.63497 1.514102,0 2.704974,0.28928 3.725689,0.71456 l -0.459222,1.12277 c -0.884723,-0.37426 -2.075817,-0.68041 -3.130475,-0.68041 -3.572615,0 -5.427029,2.0756 -5.427029,5.13774 0,3.19859 2.44985,5.15505 5.086938,5.15505 1.020494,0 1.769226,-0.0852 2.330719,-0.28929 0.0508,-0.66354 0.0508,-1.15693 0.0508,-1.92252 0,-0.8845 0,-1.36103 -0.0508,-2.00749 l 1.599069,0 c -0.03416,0.66354 -0.05103,1.48017 -0.05103,2.22867 0,0.79953 0,1.58221 0.05103,2.44985 m -14.484797,-11.70475 1.429134,0 c -0.06811,2.44986 -0.06811,3.82797 -0.06811,6.31176 0,2.29656 0,3.62364 0.06811,5.88646 l -1.29292,0 c -2.671031,-3.77693 -5.495136,-7.70693 -7.43474,-10.29278 0,4.81451 0.01707,7.07736 0.08519,10.29278 l -1.429135,0 c 0.06811,-2.26283 0.06811,-3.5899 0.06811,-5.88646 0,-2.48379 0,-3.87898 -0.06811,-6.31176 l 1.616373,0 c 2.840965,3.75987 5.494915,7.38349 7.111288,9.69735 0,-4.45734 0,-6.72017 -0.08519,-9.69735 m -16.502958,1.17388 c -0.03395,1.42914 -0.03395,2.72205 -0.03395,4.20222 1.735282,0 3.929788,-0.0171 5.103577,-0.0681 l 0,1.27605 c -1.190872,-0.0512 -3.402459,-0.0681 -5.103577,-0.0681 0,1.66718 0,3.02822 0.03395,4.50837 1.82025,0 4.542308,-0.0171 5.835229,-0.0681 l -0.561272,1.2419 -6.822221,0 c 0.06811,-2.26261 0.06811,-3.5897 0.06811,-5.88648 0,-2.48379 0,-3.87876 -0.06811,-6.31152 l 6.788057,0 0,1.20772 c -1.037578,-0.0339 -3.351434,-0.0339 -5.239791,-0.0339 m -15.115131,-1.17388 6.788058,0 0,1.20773 c -1.037798,-0.0339 -3.351435,-0.0339 -5.239791,-0.0339 -0.03416,1.42913 -0.03416,2.9774 -0.03416,4.49128 1.735282,0 3.930009,-0.0169 5.103798,-0.0679 l 0,1.25898 c -1.122764,-0.0681 -3.385598,-0.0681 -5.103798,-0.0681 0,2.12662 0,3.21545 0.06811,5.41016 l -1.58221,0 c 0.06811,-2.26282 0.06811,-3.58991 0.06811,-5.88647 0,-2.48379 0,-3.87899 -0.06811,-6.31175 m -8.652898,-0.20419 c 3.62364,0 6.226786,2.36488 6.226786,6.1416 0,4.11702 -2.858269,6.44796 -6.226786,6.44796 -3.623639,0 -6.243645,-2.33094 -6.243645,-6.10765 0,-4.11703 2.89199,-6.48191 6.243645,-6.48191 m 0,1.13985 c -2.704973,0 -4.627494,1.92253 -4.627494,5.15482 0,3.31749 1.990406,5.15505 4.627494,5.15505 2.704974,0 4.610413,-1.88858 4.610413,-5.15505 0,-3.28333 -1.973546,-5.15482 -4.610413,-5.15482 m 93.6074592,-12.61581 6.9752958,0 c 0,-1.92252 -0.01708,-3.2323 -0.08519,-5.34206 l 1.599291,0 c -0.06811,2.43277 -0.06811,3.82796 -0.06811,6.31176 0,2.29677 0,3.62363 0.06811,5.88647 l -1.599291,0 c 0.08519,-2.19473 0.08519,-3.50451 0.08519,-5.6653 l -6.9752958,0 c 0,2.16079 0,3.47057 0.067883,5.6653 l -1.5819852,0 c 0.067883,-2.26284 0.067883,-3.5897 0.067883,-5.88647 0,-2.4838 0,-3.87899 -0.067883,-6.31176 l 1.5819852,0 c -0.050801,2.10976 -0.067883,3.41954 -0.067883,5.34206 m -13.738616,1.03783 c 0,-4.16828 3.0113434,-6.58397 6.7030899,-6.58397 1.6332334,0 2.517735,0.17016 3.5386728,0.57836 l -0.4763045,1.15692 c -0.8507815,-0.37425 -1.8714967,-0.57835 -2.9263766,-0.57835 -3.0452855,0 -5.2229303,1.80317 -5.2229303,5.13774 0,3.01135 2.1776448,5.13797 5.1037987,5.13797 1.2421184,0 2.075817,-0.23826 3.0455082,-0.79976 L 5.29495,447.3283 c -1.2418964,0.61251 -2.2967764,0.85078 -3.895845,0.85078 -3.5728368,0 -6.3798598,-2.41591 -6.3798598,-6.0056 m -8.4259492,5.81836 -1.582209,0 c 0.06811,-2.26283 0.06811,-3.5897 0.06811,-5.88647 0,-2.4838 0,-3.89585 -0.06811,-6.31176 l 2.892212,0 c 3.0963107,0 4.8997005,1.13985 4.8997005,3.28356 0,1.63323 -1.037798,2.75599 -2.5008749,3.26647 0.8334768,1.5141 2.2796936,3.99789 3.2154419,5.40994 l -1.5822085,0.49339 c -0.9528303,-1.59907 -2.160784,-3.7938 -3.028426,-5.52908 -0.816617,0.0171 -1.616151,0.0171 -2.381743,0 0,1.9223 0.01707,3.84482 0.06811,5.27396 m -0.03394,-11.02422 c -0.03416,1.08882 -0.03416,3.38538 -0.03416,4.61041 0.289288,0.0171 0.73165,0.0171 1.343946,0.0171 2.1947264,0 3.385598,-0.85079 3.385598,-2.45008 0,-1.44599 -1.258978,-2.17742 -3.419541,-2.17742 l -1.275839,0 z m -12.795001,-1.17396 c -0.06811,2.43277 -0.06811,5.24001 -0.06811,7.72381 0,2.46693 1.650316,3.47056 3.572837,3.47056 1.905217,0 3.52159,-0.90158 3.52159,-3.47056 0,-2.4838 0,-5.29104 -0.06811,-7.72381 l 1.429135,0 c -0.05103,1.63324 -0.06811,3.48765 -0.06811,5.03569 0,0.95284 0.05103,1.95669 0.05103,2.84119 0,2.89221 -2.12662,4.50837 -4.933643,4.50837 -2.653949,0 -4.98489,-1.46308 -4.98489,-4.49129 0,-0.96969 0.03416,-1.85441 0.03416,-2.85827 0,-1.48015 -0.01709,-3.04528 -0.06811,-5.03569 l 1.582209,0 z m -12.934401,5.34199 6.975295,0 c 0,-1.92252 -0.01707,-3.2323 -0.08519,-5.34206 l 1.599291,0 c -0.06811,2.43277 -0.06811,3.82796 -0.06811,6.31176 0,2.29678 0,3.62364 0.06811,5.88647 l -1.599291,0 c 0.08519,-2.19473 0.08519,-3.50451 0.08519,-5.66529 l -6.975295,0 c 0,2.16078 0,3.47056 0.06788,5.66529 l -1.581987,0 c 0.06788,-2.26283 0.06788,-3.58969 0.06788,-5.88647 0,-2.4838 0,-3.87899 -0.06788,-6.31176 l 1.581987,0 c -0.0508,2.10976 -0.06788,3.41954 -0.06788,5.34206 m -13.73855,1.03782 c 0,-4.16827 3.011121,-6.58396 6.703089,-6.58396 1.633234,0 2.517735,0.17015 3.538673,0.57836 l -0.476304,1.15692 c -0.850782,-0.37425 -1.871497,-0.57835 -2.926377,-0.57835 -3.045286,0 -5.22293,1.80317 -5.22293,5.13774 0,3.01135 2.177644,5.13797 5.103799,5.13797 1.242118,0 2.075595,-0.23827 3.045508,-0.79975 l 0.510246,1.1059 c -1.241896,0.61252 -2.296776,0.85078 -3.895845,0.85078 -3.572615,0 -6.379859,-2.4159 -6.379859,-6.0056 m -11.709766,-5.20589 c -0.03395,1.42891 -0.03395,2.72205 -0.03395,4.20221 1.735283,0 3.929788,-0.0171 5.1038,-0.0681 l 0,1.27583 c -1.190872,-0.051 -3.402681,-0.0681 -5.1038,-0.0681 0,1.6674 0,3.02843 0.03395,4.50859 1.82025,0 4.542306,-0.0171 5.835449,-0.0681 l -0.561493,1.2419 -6.822222,0 c 0.06811,-2.26261 0.06811,-3.58969 0.06811,-5.88647 0,-2.4838 0,-3.87877 -0.06811,-6.31175 l 6.788279,0 0,1.20795 c -1.037797,-0.034 -3.351656,-0.034 -5.240013,-0.034 m -12.900414,4.16807 6.975296,0 c 0,-1.92252 -0.01708,-3.2323 -0.08497,-5.34206 l 1.59907,0 c -0.06811,2.43277 -0.06811,3.82796 -0.06811,6.31176 0,2.29677 0,3.62363 0.06811,5.88647 l -1.59907,0 c 0.08497,-2.19473 0.08497,-3.50451 0.08497,-5.6653 l -6.975296,0 c 0,2.16079 0,3.47057 0.06811,5.6653 l -1.582209,0 c 0.06811,-2.26284 0.06811,-3.5897 0.06811,-5.88647 0,-2.4838 0,-3.87899 -0.06811,-6.31176 l 1.582209,0 c -0.05103,2.10976 -0.06811,3.41954 -0.06811,5.34206 m -7.558175,6.85619 -1.599291,0 c 0.08519,-2.43277 0.08519,-3.82796 0.08519,-6.31176 0,-1.87149 0,-3.07944 -0.06811,-4.71245 -1.871274,0 -3.283548,0 -4.542527,0.0508 l 0.561493,-1.22482 9.90145,0 0,1.20795 c -1.020716,-0.0339 -2.824105,-0.0339 -4.355289,-0.0339 -0.05103,1.61614 -0.05103,2.84096 -0.05103,4.71245 0,2.4838 0,3.87899 0.06811,6.31176 m -28.447548,16.43851 c -6.6006,0 -11.9511,-6.21746 -11.9511,-14.05552 0,-0.8215 0.0588,-1.62658 0.1715,-2.40992 2.75799,-0.15706 7.07335,-0.37336 10.60891,-0.41951 0.0998,6.39605 -0.62205,15.10552 -0.62205,15.10552 l 3.58548,0 c 0,0 -0.72211,-8.71235 -0.62184,-15.10841 5.70123,0.0634 13.600962,0.59146 13.600962,0.59146 -1.081057,-7.1876 -7.282772,-12.83427 -14.771862,-12.83427 -8.25047,0 -14.93892,6.82443 -14.93892,15.07513 0,8.25047 6.68845,15.07513 14.93892,15.07513 7.48909,0 13.690805,-5.64689 14.771862,-12.83427 l -2.968972,0 c -0.90469,6.7732 -5.84432,11.81466 -11.80289,11.81466 m 0,-28.11104 c 4.92521,0 9.15427,3.40134 10.98406,8.45346 -2.77087,0.15062 -6.5762,0.327 -9.73108,0.36428 0.16728,-3.27669 0.53976,-7.0383 0.53976,-7.0383 l -3.58548,0 c 0,0 0.37248,3.75984 0.53975,7.0363 -3.19303,-0.0439 -7.00391,-0.22429 -9.72664,-0.37403 1.83201,-5.04591 6.05841,-8.44171 10.97963,-8.44171"
       style="fill:#eaeaea;fill-opacity:1;fill-rule:nonzero;stroke:none"
       id="path3096" />
  </g>
</svg>
