<?xml version="1.0" encoding="UTF-8" standalone="no"?>
<!-- Created with Inkscape (http://www.inkscape.org/) -->

<svg
   xmlns:dc="http://purl.org/dc/elements/1.1/"
   xmlns:cc="http://creativecommons.org/ns#"
   xmlns:rdf="http://www.w3.org/1999/02/22-rdf-syntax-ns#"
   xmlns:svg="http://www.w3.org/2000/svg"
   xmlns="http://www.w3.org/2000/svg"
   xmlns:sodipodi="http://sodipodi.sourceforge.net/DTD/sodipodi-0.dtd"
   xmlns:inkscape="http://www.inkscape.org/namespaces/inkscape"
   id="svg3004"
   version="1.1"
   inkscape:version="0.91 r13725"
   width="300"
   height="85"
   xml:space="preserve"
   sodipodi:docname="emmanuelbristol-logo.svg"
   inkscape:export-filename="/home/db9052/church/web-new/emmanuelbristol-logo.png"
   inkscape:export-xdpi="90"
   inkscape:export-ydpi="90"><metadata
     id="metadata3010"><rdf:RDF><cc:Work
         rdf:about=""><dc:format>image/svg+xml</dc:format><dc:type
           rdf:resource="http://purl.org/dc/dcmitype/StillImage" /><dc:title /></cc:Work></rdf:RDF></metadata><defs
     id="defs3008" /><sodipodi:namedview
     pagecolor="#ffffff"
     bordercolor="#666666"
     borderopacity="1"
     objecttolerance="10"
     gridtolerance="10"
     guidetolerance="10"
     inkscape:pageopacity="0"
     inkscape:pageshadow="2"
     inkscape:window-width="3200"
     inkscape:window-height="1671"
     id="namedview3006"
     showgrid="false"
     inkscape:zoom="3.0717254"
     inkscape:cx="17.973137"
     inkscape:cy="-56.039679"
     inkscape:window-x="0"
     inkscape:window-y="55"
     inkscape:window-maximized="1"
     inkscape:current-layer="g3012"
     showguides="true"
     inkscape:guide-bbox="true"
     units="mm"
     inkscape:document-units="px"
     fit-margin-top="2"
     fit-margin-left="2"
     fit-margin-right="2"
     fit-margin-bottom="2" /><g
     id="g3012"
     inkscape:groupmode="layer"
     inkscape:label="Main"
     transform="matrix(1.25,0,0,-1.25,-6.439137,623.00314)"><g
       id="g4811"
       transform="translate(0,-0.05872978)"><path
         inkscape:connector-curvature="0"
         d="m 110.11105,477.33992 c -1.28276,0.0917 -23.362938,-9.25339 -23.362938,-9.25339 0.36656,-0.1832 1.09947,-1.00785 1.09947,-1.00785 0,0 18.965128,-0.0916 20.339378,0 0.27482,0.36652 0.64121,0.73295 0.64121,0.73295 0,0 0.36656,5.49721 1.28288,9.52829 z m 5.68058,-10.60481 c 0.87088,0.34354 47.22925,0.27494 47.22925,0.27494 -37.10563,3.29826 -46.06105,9.48242 -46.06105,9.48242 -2.26755,0.68716 -2.54245,0.0688 -2.54245,0.0688 -0.20609,-4.05406 0.34358,-8.72665 0.34358,-8.72665 0,0 0.15988,-1.44301 1.03067,-1.09947 z m 58.22353,0.20621 c 0,0 42.3279,0.27482 42.74025,0.20614 0.41227,-0.0688 1.03062,1.09939 1.03062,1.09939 0,0 0.54976,4.67263 0.34367,8.72673 0,0 -0.2749,0.6184 -2.54253,-0.0687 0,0 -13.19311,-6.1842 -41.57201,-9.96354 z M 31.972632,477.6446 c 0.04252,0.1687 0.08508,0.33859 0.12751,0.50858 0.212459,0.46743 0.50991,0.93483 0.849836,1.31718 0.127423,0.12751 0.254933,0.21246 0.3824,0.33997 0.212416,0.16995 0.424918,0.29741 0.637333,0.42488 0.50991,0.33992 1.104726,0.33992 1.65711,0.42491 0,0.50987 0.127467,0.97727 0.424875,1.35966 0.08499,0.085 0.169942,0.12751 0.212502,0.21246 0.849793,0.72237 1.996993,0.72237 3.016726,0.55234 1.657154,0.89236 3.654147,1.57217 5.467083,0.7123 1.0499,-0.51791 1.731345,-1.52133 2.147268,-2.58647 0.251058,0.12747 0.533706,0.16 0.808307,0.10061 0.713377,-0.15423 1.28263,-0.77478 1.723813,-1.31615 0.396601,-0.48658 0.674083,-1.09491 1.217216,-1.4375 0.822336,-0.51865 1.873702,-0.69681 2.825397,-0.80358 l 0.944769,-0.0561 c 2.117057,-0.0518 4.241603,-0.17927 6.40854,0.11822 l 0.382443,0 c 0.127464,0 0.212459,0.0425 0.339881,0.0849 l 0.2125,0 c 0.594818,0.12746 1.189719,0.21246 1.657114,0.55234 0.212412,1.06229 0.04247,2.16702 0,3.27179 0,0.16994 -0.127468,0.29741 -0.254979,0.42483 0.297453,0.29749 0.594902,0.63738 0.977302,0.84984 0.38236,0.16998 0.849792,0.12746 1.147203,0.50986 0.212413,0.21246 0.509907,0.21246 0.807318,0.21246 0.169984,0.0424 0.212412,0.25498 0.297407,0.3824 0.169984,0.21246 0.552385,0.16998 0.807317,0.085 0.764844,-0.21237 1.487168,-0.46735 2.209495,-0.89227 0.297407,-0.21246 0.509865,-0.50986 0.722324,-0.7648 -0.297449,-0.84983 -0.212459,-1.69963 -0.297449,-2.59189 -0.04247,-0.67985 -0.04247,-1.40218 -0.08495,-2.08199 -0.04252,-0.93482 -0.04252,-1.86957 0.04247,-2.80435 0.04247,-0.25493 0.127464,-0.46735 0.254975,-0.67985 0.169942,-0.16994 0.29741,-0.33988 0.467349,-0.50983 1.189718,-0.12746 2.379437,0.12743 3.61163,0.25489 0.339927,0.0425 0.637375,0.12747 0.977302,0.21246 0.467349,0.12747 0.892266,0.29745 1.359657,0.42492 2.039506,-0.085 4.079066,0.0425 6.118536,-0.16994 0.89231,-0.085 1.74214,-0.17003 2.63441,-0.29745 0.33992,-0.0425 0.35232,-0.0588 1.0227,-0.1992 -0.003,-0.0557 -0.30038,-0.90557 -0.2579,-1.37296 0.25493,-0.42488 0.16998,-0.93474 0.085,-1.40218 -0.085,-0.46735 0.2125,-0.80727 0.48288,-1.11432 -0.17011,-0.0383 -0.35042,-0.0961 -0.52497,-0.10802 0.13797,0.0564 0.37681,0.13216 0.52497,0.10802 -1.16269,-0.28781 -3.83958,-0.0754 -3.96704,-0.0329 -3.10176,0.25493 -5.226265,0.3688 -9.22025,0.89231 -3.994115,0.52351 -11.302365,2.80435 -11.302365,2.80435 -2.399274,-1.33762 12.407048,-3.4842 18.865505,-4.07906 0.21246,-0.0425 0.3824,-0.0425 0.5949,-0.0425 1.35966,-0.085 2.71932,-0.29741 4.07902,-0.29741 0.29741,0 0.59486,0.0425 0.89227,0.16994 7.90315,3.18676 15.678788,6.20357 23.539418,9.30533 0.085,0.16994 0.16999,0.33988 0.21242,0.50987 0.12751,0.3824 -0.12742,0.72232 -0.33442,1.00394 0.0293,4.2e-4 0.21091,-0.28712 0,0 1.43919,-0.0267 2.88385,0.0583 4.32914,0.0687 -0.10995,-0.13728 -0.63011,-0.01 0,0 -0.38301,-0.4778 -0.29806,-1.11514 -0.0856,-1.66756 0.0425,-0.0424 0.085,-0.0849 0.12743,-0.12743 2.16702,-1.01982 4.33403,-1.95456 6.58596,-2.76188 1.78459,-0.63737 3.56916,-1.18967 5.39625,-1.74206 1.27471,-0.33988 2.46434,-0.67989 3.73905,-1.01977 0.80732,-0.21246 1.57221,-0.3824 2.42196,-0.59486 2.1245,-0.4674 4.07906,-0.89231 6.24604,-1.31719 1.82701,-0.33988 3.52663,-0.63729 5.35373,-0.93478 1.61459,-0.21242 3.10172,-0.46735 4.71631,-0.67985 1.40222,-0.16995 2.7194,-0.33993 4.07906,-0.50987 5.56619,-0.59482 11.04739,-1.10473 16.57106,-1.23219 2.50691,0.16994 4.97134,0.29745 7.47824,0.55238 0.12751,0 0.25493,0.085 0.38244,0.085 0.46739,0.0425 0.97726,0.0849 1.44465,0.12747 0.12742,0 0.25493,0.0849 0.38236,0.0849 5.01389,0.5949 9.68768,1.48717 14.70158,2.63441 0.0424,0 0.12742,0.085 0.16994,0.085 0.84975,0.16993 1.61463,0.33988 2.42191,0.59481 0.25493,0.085 0.55238,0.085 0.80732,0.16998 0.0425,0 0.12742,0.085 0.16994,0.085 0.63738,0.12746 1.18976,0.29736 1.78457,0.46735 0.2125,0.0425 0.38245,0.085 0.59482,0.12751 4.07911,1.18967 7.9881,2.37935 11.98222,3.82404 0.12742,0.0425 0.21245,0.12747 0.33988,0.16994 2.20945,0.7648 4.37647,1.61464 6.50102,2.54947 0.0424,0.33988 -0.085,0.6798 -0.21014,0.96142 0.0528,-0.003 0.0107,-0.0717 0,0 1.48476,-0.0692 2.97197,-0.15415 4.46638,-0.20613 -0.002,-0.002 -0.61861,0.0285 0,0 -0.0498,-0.033 -0.0498,-0.0755 -0.0923,-0.11796 -0.12743,-0.085 -0.33993,-0.16998 -0.33993,-0.29745 -0.0849,-0.29741 -0.0424,-0.63738 0.16994,-0.93478 0.12751,-0.16995 0.29744,-0.2549 0.46743,-0.38236 0.93479,-0.50992 1.78454,-1.01982 2.71937,-1.48717 0.29736,-0.16999 0.59481,-0.33993 0.84975,-0.50991 3.8666,0.2974 7.69073,0.50991 11.55725,0.76484 0.12751,0 0.29745,0.0849 0.3824,-0.0425 1.48721,-2.12455 2.71941,-4.12154 3.69666,-6.41603 0.085,-0.25498 0.21246,-0.46739 0.29746,-0.72228 0.93474,-2.54942 1.52964,-5.48124 -0.085,-7.9881 -0.0425,-0.0425 -0.0849,-0.085 -0.1275,-0.12747 -0.0424,-0.085 -0.085,-0.2125 -0.16995,-0.29749 -2.42191,-2.93174 -6.161,-3.56911 -9.68768,-3.99403 l -0.38245,0 c -5.18374,-0.42488 -10.32501,0 -15.38131,0.93478 0.0425,2.25197 0.17,4.54641 0.12743,6.79839 -0.0424,0.38235 -0.42486,0.80731 -0.80726,0.80731 -32.41984,0 -64.83964,0.12747 -97.25939,0 -0.55238,0 -0.55238,-0.67985 -0.50991,-1.10472 0.12747,-1.4447 0.12747,-2.84683 0.085,-4.29153 -0.0425,-0.6798 -0.085,-1.35961 -0.21246,-2.03946 0,-0.085 -0.085,-0.16999 -0.12747,-0.16999 -10.24007,-0.33992 -20.437668,-0.59486 -30.635268,-0.84979 -1.01973,0.3824 -2.03947,0.59486 -3.05924,0.93479 -1.35971,0.3824 -2.5919,0.76484 -3.9516,1.14719 -0.80727,0.21246 -1.52964,0.38245 -2.33692,0.50992 -2.676885,0.33992 -5.396204,0.84979 -7.945583,-0.12747 -0.552386,-0.21246 -1.019777,-0.50987 -1.529642,-0.80736 -0.892312,-0.46735 -1.827094,-0.84979 -2.76188,-1.18968 -0.722327,-0.29741 -1.444651,-0.63737 -2.229465,-0.60669 0.205574,-0.17442 0.327619,-0.0354 0,0 0.01996,-0.0307 0.06249,-0.11563 -0.0225,-0.11563 -0.212416,-0.0425 -0.382401,0.0425 -0.594859,0.0425 -1.317187,0.25493 -2.464428,0.50991 -3.781615,0.76485 -1.912042,0.33992 -3.739094,0.59485 -5.60862,0.6798 -5.608709,0.25494 -11.174897,0.16999 -16.741087,0.25494 -0.594816,0.0425 -1.232193,0.0425 -1.827052,0.085 -2.676887,0.21246 -5.353731,0.50986 -7.860633,1.40218 -2.549378,1.14724 -4.801347,2.54937 -7.265775,4.12149 -0.127467,0.085 -0.212416,0.16999 -0.297451,0.25498 -0.254934,0.16994 -0.467349,0.25493 -0.679808,0.42487 -3.654146,2.67689 -6.8409,5.39625 -9.0078777,9.3478 -0.04243,0.12743 -0.169941,0.21242 -0.212459,0.29741 -0.297408,0.55239 -0.552341,1.10477 -0.7648,1.69959 -0.424875,1.27471 -0.849792,2.67688 -0.722326,3.99407 2.6344127,0.84984 5.4387237,1.06225 8.2005597,0.84984 0.169984,0 0.254933,-0.21251 0.339925,-0.34002 0.424875,-0.89222 0.807276,-1.74202 1.10477,-2.6768 0.08495,0.0425 0.169941,0.085 0.212415,0.21246 0.04247,0.21242 0.127467,0.3824 0.169942,0.59486 0.04252,0.46735 0.127466,0.89227 0.169984,1.35966 0.169984,2.59189 0.08499,5.18379 0.08499,7.77564 -0.12751,0.84979 0.127424,1.7421 -0.169984,2.59194 -0.04247,0.12742 -0.212459,0.12742 -0.297408,0.21241 -0.12751,0.16995 -0.169941,0.59486 0.04247,0.67986 0.08499,0.0424 0.212459,-0.0425 0.254934,0.0424 0.169984,0.3824 0.212416,0.76488 0.467349,1.10477 0.08503,0.12746 -0.08495,0.25493 0.04256,0.38244 0.127466,0.0849 0.297408,0.0849 0.382357,0.16994 0.297408,0.33993 0.424917,0.76484 0.3824,1.18972 0.169984,0.0425 0.382443,0.0425 0.552384,0.085 0.12751,0.25494 0.254934,0.55234 0.339926,0.84975 0.08499,0.38244 0.199075,0.7253 0.300851,1.08153 0.166541,0.0233 0.294051,-0.10427 0.336483,-0.18922 0.382443,-0.67981 0.382443,-1.48712 0.849835,-2.08203 0.169941,0.0425 0.254933,-0.0849 0.3824,-0.12746 -0.254933,-0.42488 0.297408,-0.72229 0.3824,-1.10473 0.08495,-0.33988 0.424918,-0.21241 0.594902,-0.33988 0.04243,-0.085 0.08495,-0.16999 0.127424,-0.25494 0.08495,-0.29745 0.212459,-0.55242 0.254934,-0.84983 0.04252,-0.29741 0,-0.63734 0,-0.93474 -0.169985,-0.085 -0.339926,-0.16999 -0.46735,-0.25498 0,-2.97425 0,-5.99111 0.0127,-8.96364 l 0,-1.02339 c 0.898507,0.0726 1.803985,0.089 2.704859,0.0801 0.863133,-0.009 1.726696,-0.0484 2.585741,-0.13466 0.226746,-0.0227 0.453277,-0.0488 0.679119,-0.0788 0.109909,-0.0145 0.247747,-0.0128 0.352019,-0.05 0.08805,-0.0313 0.177214,-0.10449 0.255794,-0.15479 0.318667,-0.2042 0.617323,-0.43947 0.890115,-0.7018 0.562583,-0.54115 1.079594,-1.23318 1.327771,-1.98353"
         style="fill:#ffffff;stroke:#1e1e1e;stroke-width:0.23670334;stroke-linecap:butt;stroke-linejoin:miter;stroke-miterlimit:4;stroke-dasharray:none;stroke-opacity:1"
         id="path4180" /><path
         id="path3172"
         d="m 19.374696,495.97403 c -0.0066,-3.1e-4 -0.01369,-0.001 -0.02044,-0.002 -0.009,-0.0313 -0.01579,-0.0579 -0.02044,-0.0796 -0.08684,-0.33041 -0.201098,-0.64856 -0.279721,-1.00269 -0.08499,-0.29745 -0.212545,-0.59391 -0.339969,-0.84884 -0.169984,-0.0425 -0.383088,-0.0426 -0.552987,-0.085 0.04243,-0.425 -0.08447,-0.85 -0.381927,-1.18989 -0.08499,-0.085 -0.255493,-0.085 -0.383002,-0.16998 -0.127424,-0.12747 0.04299,-0.25549 -0.04196,-0.383 -0.254934,-0.33993 -0.298054,-0.7225 -0.467995,-1.1049 -0.02431,-0.0486 -0.07639,-0.0413 -0.13233,-0.0344 -0.042,0.005 -0.08628,0.0106 -0.122646,-0.008 -0.212459,-0.085 -0.169382,-0.50996 -0.04196,-0.67994 0.08499,-0.0849 0.254417,-0.0844 0.296935,-0.21194 0.297451,-0.84984 0.04252,-1.74301 0.169984,-2.5928 0,-2.59189 0.08491,-5.18323 -0.08499,-7.77517 -0.04252,-0.46735 -0.12751,-0.89244 -0.169984,-1.35987 -0.04252,-0.21242 -0.127467,-0.38249 -0.169984,-0.59495 -0.04247,-0.12751 -0.126951,-0.16942 -0.211943,-0.21194 -0.297408,0.93478 -0.680023,1.78444 -1.104898,2.67672 -0.08499,0.12755 -0.169984,0.33996 -0.339968,0.33996 -2.761837,0.21246 -5.5658034,-3e-5 -8.2001299,-0.84992 -0.1274667,-1.31714 0.2969779,-2.71996 0.7218956,-3.99463 0.2124158,-0.5949 0.4674782,-1.14643 0.7649292,-1.69877 0.042518,-0.085 0.1705007,-0.17059 0.2130183,-0.29801 2.1669768,-3.9516 5.3528708,-6.6701 9.0070168,-9.34698 0.212459,-0.16999 0.424961,-0.25597 0.679937,-0.42604 0.08491,-0.0849 0.170501,-0.169 0.298011,-0.2539 2.464385,-1.57221 4.715838,-2.97435 7.265215,-4.12158 2.506903,-0.89232 5.184393,-1.19046 7.861237,-1.40291 0.594859,-0.0425 1.231891,-0.0425 1.826793,-0.085 5.56619,-0.085 11.132683,-1e-5 16.741304,-0.25498 1.869572,-0.085 3.696365,-0.34001 5.608408,-0.67994 1.317137,-0.25498 2.464427,-0.50883 3.78161,-0.76385 0.212467,0 0.382484,-0.0855 0.594947,-0.043 0.08499,0 0.0426,0.0856 0.02259,0.11619 0.784851,-0.0306 1.506832,0.30826 2.229164,0.60571 0.934773,0.33993 1.869393,0.72246 2.761704,1.18989 0.509907,0.29737 0.97752,0.59551 1.529859,0.80796 2.549463,0.97731 5.268268,0.46683 7.94515,0.12696 0.807367,-0.12752 1.529482,-0.29746 2.336746,-0.50996 1.359703,-0.38235 2.591941,-0.7645 3.951598,-1.14685 1.019735,-0.33997 2.040033,-0.55256 3.059721,-0.93492 10.197553,0.25489 20.394755,0.51 30.634825,0.84992 0.0425,0 0.12803,0.0851 0.12803,0.16999 0.12746,0.67989 0.16946,1.35996 0.21194,2.03981 0.0425,1.44461 0.0425,2.84592 -0.085,4.29049 -0.0425,0.425 -0.0425,1.1049 0.50995,1.1049 32.41975,0.12752 64.84028,0 97.26007,0 0.38232,0 0.76434,-0.42445 0.80689,-0.80689 0.0424,-2.25189 -0.0844,-4.54637 -0.12695,-6.7983 5.05636,-0.93478 10.19759,-1.35983 15.38143,-0.93491 l 0.38193,0 c 3.52663,0.42487 7.26612,1.06281 9.68803,3.99463 0.0851,0.085 0.12751,0.21194 0.16998,0.29693 0.0425,0.0425 0.0845,0.0845 0.12695,0.12695 1.6146,2.50691 1.01982,5.43881 0.085,7.9882 -0.0849,0.25496 -0.21198,0.46807 -0.29693,0.72297 -0.97731,2.29448 -2.20954,4.29083 -3.69662,6.41529 -0.085,0.12751 -0.2555,0.043 -0.38301,0.043 -3.8666,-0.25498 -7.69017,-0.46748 -11.55678,-0.76493 -0.25489,0.1699 -0.55247,0.34006 -0.84992,0.50995 -0.93474,0.4674 -1.78496,0.977 -2.71974,1.48683 -0.16999,0.12755 -0.3395,0.21302 -0.46693,0.383 -0.21246,0.29745 -0.25489,0.63747 -0.16998,0.93492 0,0.12746 0.21241,0.21198 0.33997,0.29693 0.0424,0.0426 0.0427,0.0854 0.0925,0.11835 -0.40004,0.0185 -0.28454,0.0116 -0.15169,0.005 -1.44356,0.0524 -2.88053,0.13325 -4.31524,0.20011 0.003,-0.0206 0.009,-0.0289 0.014,-0.0312 0.1204,-0.2752 0.23677,-0.60234 0.1958,-0.92953 -2.12446,-0.93478 -4.29083,-1.78496 -6.50029,-2.54977 -0.12746,-0.0425 -0.2125,-0.12746 -0.33996,-0.16998 -3.99403,-1.44465 -7.9038,-2.63489 -11.98282,-3.82465 -0.21246,-0.0425 -0.38245,-0.0844 -0.59494,-0.12694 -0.59482,-0.16999 -1.14634,-0.3395 -1.78377,-0.46693 -0.0424,0 -0.12747,-0.085 -0.16998,-0.085 -0.25498,-0.0849 -0.55307,-0.085 -0.80796,-0.16998 -0.80737,-0.25493 -1.57186,-0.42497 -2.42174,-0.59494 -0.0424,0 -0.12747,-0.085 -0.16998,-0.085 -5.01377,-1.14724 -9.68769,-2.03994 -14.7015,-2.63475 -0.12747,0 -0.25446,-0.085 -0.38192,-0.085 -0.46744,-0.0425 -0.97752,-0.0845 -1.44487,-0.12695 -0.12747,0 -0.25553,-0.085 -0.383,-0.085 -2.5069,-0.2549 -4.97026,-0.38304 -7.47716,-0.55299 -5.52371,0.12743 -11.00513,0.63703 -16.57132,1.23185 -1.35957,0.16999 -2.67749,0.34001 -4.07962,0.50995 -1.61464,0.21242 -3.10194,0.46748 -4.71653,0.67994 -1.82702,0.29745 -3.52629,0.59494 -5.35343,0.93491 -2.16694,0.42484 -4.12085,0.85057 -6.24531,1.31792 -0.84983,0.21246 -1.6155,0.38141 -2.42281,0.59387 -1.27472,0.33992 -2.46392,0.68002 -3.73858,1.01991 -1.82706,0.55242 -3.61189,1.10554 -5.39646,1.74287 -2.25203,0.80732 -4.41942,1.74202 -6.58636,2.76171 -0.0426,0.0425 -0.0845,0.0845 -0.12695,0.12695 -0.21255,0.55243 -0.29703,1.18972 0.0861,1.66757 -1.44535,-0.0104 -2.89004,-0.0955 -4.32922,-0.0689 0.002,-0.003 0.004,-0.006 0.006,-0.009 0.20579,-0.27994 0.45435,-0.61663 0.32813,-0.99516 -0.0425,-0.16999 -0.12802,-0.34001 -0.21301,-0.50995 -7.86073,-3.10181 -15.636494,-6.11832 -23.539599,-9.30503 -0.297365,-0.12746 -0.594475,-0.16999 -0.891878,-0.16998 -1.359703,0 -2.719974,0.21193 -4.079627,0.29693 -0.212425,0 -0.38253,4.2e-4 -0.594947,0.043 -6.458496,0.5948 -21.264304,2.74096 -18.865026,4.07854 0,0 7.307816,-2.28016 11.301802,-2.80366 3.994073,-0.52347 6.119308,-0.63794 9.221111,-0.89296 0.112918,-0.0376 2.225419,-0.20872 3.514803,-0.0473 -0.0263,-0.01 -0.05117,-0.0179 -0.07316,-0.0269 0.154277,0.0106 0.313585,0.0565 0.465842,0.0936 0.02033,0.005 0.03962,0.009 0.05917,0.014 -0.270468,0.30706 -0.568046,0.64715 -0.483056,1.11458 0.085,0.46736 0.169984,0.97688 -0.08499,1.40184 -0.04248,0.46735 0.255275,1.31701 0.258202,1.37278 -0.670385,0.14038 -0.683165,0.15656 -1.023133,0.19903 -0.892271,0.12756 -1.741415,0.21302 -2.633681,0.29802 -2.039561,0.21245 -4.078846,0.085 -6.118361,0.16998 -0.467391,-0.12747 -0.892525,-0.2975 -1.359874,-0.42496 -0.339969,-0.085 -0.638064,-0.17059 -0.977945,-0.21302 -1.232239,-0.12747 -2.421912,-0.38244 -3.61163,-0.25498 -0.169984,0.16995 -0.296935,0.33993 -0.466919,0.50996 -0.127469,0.21241 -0.212501,0.425 -0.254975,0.67993 -0.085,0.93483 -0.08552,1.87005 -0.04303,2.80475 0.04251,0.67989 0.04252,1.40196 0.08499,2.08176 0.08495,0.89232 4.17e-4,1.74194 0.298012,2.59173 -0.212467,0.25497 -0.425527,0.55256 -0.722971,0.76493 -0.722336,0.42496 -1.443962,0.67942 -2.208722,0.89188 -0.254933,0.085 -0.638023,0.12746 -0.807961,-0.085 -0.08496,-0.12746 -0.127043,-0.33949 -0.296935,-0.38192 -0.297461,0 -0.594429,4.2e-4 -0.806892,-0.21195 -0.297444,-0.38244 -0.76557,-0.33996 -1.147929,-0.50995 -0.382447,-0.21246 -0.679507,-0.55247 -0.976872,-0.84992 0.127422,-0.12746 0.254978,-0.25502 0.254978,-0.42496 0.04247,-1.10486 0.212455,-2.20945 0,-3.27166 -0.467445,-0.33993 -1.062985,-0.42552 -1.657886,-0.55299 l -0.211945,0 c -0.12746,-0.0425 -0.212496,-0.085 -0.339968,-0.085 l -0.381925,0 c -2.167021,-0.29745 -4.291739,-0.17007 -6.408841,-0.11834 l -0.944593,0.057 c -0.951704,0.10672 -2.002895,0.28497 -2.825185,0.80366 -0.54317,0.34263 -0.821296,0.95083 -1.217863,1.43733 -0.441263,0.54141 -1.01014,1.16149 -1.723508,1.31577 -0.27461,0.0595 -0.557946,0.0275 -0.809042,-0.10006 -0.415844,1.06514 -1.096462,2.06839 -2.146322,2.58635 -1.812977,0.85982 -3.810447,0.18001 -5.46747,-0.71221 -1.019777,0.16989 -2.166891,0.16933 -3.016683,-0.55299 -0.04252,-0.085 -0.126951,-0.12695 -0.211943,-0.21195 -0.297451,-0.38235 -0.424961,-0.85 -0.424961,-1.35987 -0.552427,-0.085 -1.148018,-0.0851 -1.657885,-0.42496 -0.212458,-0.12747 -0.424444,-0.25494 -0.636903,-0.42496 -0.127466,-0.12742 -0.255535,-0.2125 -0.383003,-0.33997 -0.339925,-0.38244 -0.636429,-0.84945 -0.848845,-1.31684 -0.04252,-0.16994 -0.08547,-0.34018 -0.128026,-0.50888 l 0.01291,-0.0527 c -0.248221,0.75021 -0.765016,1.44271 -1.3276,1.98386 -0.272792,0.26238 -0.572093,0.49726 -0.890803,0.70146 -0.07862,0.0504 -0.166972,0.12363 -0.254977,0.15492 -0.104314,0.0372 -0.24297,0.036 -0.352879,0.0506 -0.226014,0.0299 -0.452072,0.0558 -0.678861,0.0785 -0.859045,0.0863 -1.722048,0.12592 -2.585268,0.13448 -0.900873,0.009 -1.807213,-0.007 -2.705762,-0.0796 l 0,1.02313 c -0.01265,2.97258 -0.01184,5.98969 -0.01184,8.96399 0.127467,0.0849 0.296977,0.17002 0.466919,0.25497 0,0.29746 0.04252,0.63648 0,0.93384 -0.04247,0.29745 -0.169985,0.55252 -0.254977,0.84992 -0.04252,0.085 -0.08443,0.16995 -0.12695,0.25498 -0.169941,0.12747 -0.509953,7e-5 -0.594945,0.33997 -0.08499,0.38244 -0.637893,0.68002 -0.383002,1.1049 -0.127467,0.0425 -0.2119,0.1705 -0.381927,0.12802 -0.46735,0.59486 -0.467565,1.40188 -0.849922,2.08177 -0.03912,0.078 -0.150016,0.1915 -0.296935,0.1915 -0.0065,0 -0.01272,3.1e-4 -0.01936,0 z m 42.786557,-39.4213 c 0.205523,-0.17445 0.327614,-0.0353 0,0 z m 46.554187,20.01835 c 0.0125,4.1e-4 0.0233,8.3e-4 0.0334,0 -0.91637,-4.03113 -1.28241,-9.52881 -1.28241,-9.52881 0,0 -0.36631,-0.36613 -0.64121,-0.73265 -1.37425,-0.0916 -20.338942,0 -20.338946,0 0,0 -0.733,0.82487 -1.099514,1.00807 0,0 21.73617,9.19921 23.32873,9.25339 z m 107.21168,-0.11082 c 0.72226,0.0111 0.84024,-0.25605 0.84024,-0.25605 0.20609,-4.05415 -0.3432,-8.72622 -0.3432,-8.72622 0,0 -0.61839,-1.16837 -1.03066,-1.09952 -0.41226,0.0687 -42.74029,-0.20656 -42.74029,-0.20656 28.37898,3.77933 41.57192,9.96345 41.57192,9.96345 0.7795,0.23621 1.32367,0.31909 1.70199,0.3249 z m -102.13044,-0.41312 c 0.38047,0.008 0.95064,-0.0662 1.80097,-0.32384 0,0 8.95585,-6.18428 46.06144,-9.48254 0,0 -46.3579,0.069 -47.22874,-0.27434 -0.87084,-0.34358 -1.03066,1.09952 -1.03066,1.09952 0,0 -0.55045,4.67212 -0.34428,8.72622 0,0 0.10714,0.24156 0.74127,0.25498 z"
         style="fill:#47c0bf;fill-opacity:1;stroke:none"
         inkscape:connector-curvature="0" /><path
         d="m 110.1111,477.33992 c -0.91632,-4.03108 -1.28288,-9.52829 -1.28288,-9.52829 0,0 -0.36639,-0.36643 -0.64121,-0.73295 -1.37425,-0.0916 -20.339374,0 -20.339374,0 0,0 -0.732912,0.82465 -1.099476,1.00785 0,0 22.08018,9.34505 23.36294,9.25339 z m 5.68058,-10.60477 c -0.87079,-0.34354 -1.03067,1.09947 -1.03067,1.09947 0,0 -0.54967,4.67259 -0.34358,8.72665 0,0 0.2749,0.61836 2.54245,-0.0688 0,0 8.95542,-6.18416 46.06105,-9.48242 0,0 -46.35837,0.0686 -47.22925,-0.27494 z m 58.22353,0.20617 c 0,0 42.3279,0.27482 42.74025,0.20614 0.41227,-0.0688 1.03062,1.09939 1.03062,1.09939 0,0 0.54976,4.67263 0.34367,8.72673 0,0 -0.2749,0.6184 -2.54253,-0.0687 0,0 -13.19311,-6.1842 -41.57201,-9.96354 z M 31.972684,477.6446 c 0.04252,0.1687 0.08508,0.33859 0.12751,0.50858 0.212459,0.46743 0.50991,0.93483 0.849836,1.31718 0.127423,0.12751 0.254933,0.21246 0.3824,0.33997 0.212416,0.16995 0.424918,0.29741 0.637333,0.42488 0.50991,0.33992 1.104726,0.33992 1.65711,0.42491 0,0.50987 0.127467,0.97727 0.424875,1.35966 0.08499,0.085 0.169942,0.12751 0.212502,0.21246 0.849793,0.72237 1.996993,0.72237 3.016726,0.55234 1.657154,0.89236 3.654147,1.57217 5.467083,0.7123 1.0499,-0.51791 1.731345,-1.52133 2.147268,-2.58647 0.251058,0.12747 0.533706,0.16 0.808307,0.10061 0.713377,-0.15423 1.28263,-0.77478 1.723813,-1.31615 0.396601,-0.48658 0.674083,-1.09491 1.217216,-1.4375 0.822336,-0.51865 1.873702,-0.69681 2.825397,-0.80358 l 0.944769,-0.0561 c 2.117057,-0.0518 4.241603,-0.17927 6.40854,0.11822 l 0.382443,0 c 0.127464,0 0.212459,0.0425 0.339881,0.0849 l 0.2125,0 c 0.594818,0.12746 1.189719,0.21246 1.657114,0.55234 0.212412,1.06229 0.04247,2.16702 0,3.27179 0,0.16994 -0.127468,0.29741 -0.254979,0.42483 0.297453,0.29749 0.594902,0.63738 0.977302,0.84984 0.38236,0.16998 0.849792,0.12746 1.147203,0.50986 0.212413,0.21246 0.509907,0.21246 0.807318,0.21246 0.169984,0.0424 0.212412,0.25498 0.297407,0.3824 0.169984,0.21246 0.552385,0.16998 0.807317,0.085 0.764844,-0.21237 1.487168,-0.46735 2.209495,-0.89227 0.297407,-0.21246 0.509865,-0.50986 0.722324,-0.7648 -0.297449,-0.84983 -0.212459,-1.69963 -0.297449,-2.59189 -0.04247,-0.67985 -0.04247,-1.40218 -0.08495,-2.08199 -0.04252,-0.93482 -0.04252,-1.86957 0.04247,-2.80435 0.04247,-0.25493 0.127464,-0.46735 0.254975,-0.67985 0.169942,-0.16994 0.29741,-0.33988 0.467349,-0.50983 1.189718,-0.12746 2.379437,0.12743 3.61163,0.25489 0.339927,0.0425 0.637375,0.12747 0.977302,0.21246 0.467349,0.12747 0.892266,0.29745 1.359657,0.42492 2.039511,-0.085 4.079067,0.0425 6.118532,-0.16994 0.892312,-0.085 1.742145,-0.17003 2.634416,-0.29745 0.339922,-0.0425 0.352318,-0.0588 1.022703,-0.1992 -0.0029,-0.0557 -0.30038,-0.90557 -0.257906,-1.37296 0.254933,-0.42488 0.169985,-0.93474 0.08495,-1.40218 -0.08495,-0.46735 0.212504,-0.80727 0.482885,-1.11432 -0.170114,-0.0383 -0.350424,-0.0961 -0.524971,-0.10802 0.137969,0.0564 0.376806,0.13216 0.524971,0.10802 -1.162693,-0.28781 -3.839579,-0.0754 -3.967047,-0.0329 -3.101761,0.25493 -5.226262,0.3688 -9.220247,0.89231 -3.994115,0.52351 -11.302365,2.80435 -11.302365,2.80435 -2.399274,-1.33762 12.407048,-3.4842 18.865502,-4.07906 0.212459,-0.0425 0.382401,-0.0425 0.594901,-0.0425 1.359661,-0.085 2.719318,-0.29741 4.079021,-0.29741 0.297411,0 0.59486,0.0425 0.892271,0.16994 7.903151,3.18676 15.678786,6.20357 23.539416,9.30533 0.085,0.16994 0.16999,0.33988 0.21242,0.50987 0.12751,0.3824 -0.12742,0.72232 -0.33442,1.00394 0.0293,4.2e-4 0.21091,-0.28712 0,0 1.43919,-0.0267 2.88385,0.0583 4.32914,0.0687 -0.10995,-0.13728 -0.63011,-0.01 0,0 -0.38301,-0.4778 -0.29806,-1.11514 -0.0856,-1.66756 0.0425,-0.0424 0.085,-0.0849 0.12743,-0.12743 2.16702,-1.01982 4.33403,-1.95456 6.58596,-2.76188 1.78459,-0.63737 3.56916,-1.18967 5.39625,-1.74206 1.27471,-0.33988 2.46434,-0.67989 3.73905,-1.01977 0.80732,-0.21246 1.57221,-0.3824 2.42196,-0.59486 2.1245,-0.4674 4.07906,-0.89231 6.24604,-1.31719 1.82701,-0.33988 3.52663,-0.63729 5.35373,-0.93478 1.61459,-0.21242 3.10172,-0.46735 4.71631,-0.67985 1.40222,-0.16995 2.7194,-0.33993 4.07906,-0.50987 5.56619,-0.59482 11.04739,-1.10473 16.57106,-1.23219 2.50691,0.16994 4.97134,0.29745 7.47824,0.55238 0.12751,0 0.25493,0.085 0.38244,0.085 0.46739,0.0425 0.97726,0.0849 1.44465,0.12747 0.12742,0 0.25493,0.0849 0.38236,0.0849 5.01389,0.5949 9.68768,1.48717 14.70158,2.63441 0.0424,0 0.12742,0.085 0.16994,0.085 0.84975,0.16993 1.61463,0.33988 2.42191,0.59481 0.25493,0.085 0.55238,0.085 0.80732,0.16998 0.0425,0 0.12742,0.085 0.16994,0.085 0.63738,0.12746 1.18976,0.29736 1.78457,0.46735 0.2125,0.0425 0.38245,0.085 0.59482,0.12751 4.07911,1.18967 7.9881,2.37935 11.98222,3.82404 0.12742,0.0425 0.21245,0.12747 0.33988,0.16994 2.20945,0.7648 4.37647,1.61464 6.50102,2.54947 0.0424,0.33988 -0.085,0.6798 -0.21014,0.96142 0.0528,-0.003 0.0107,-0.0717 0,0 1.48476,-0.0692 2.97197,-0.15415 4.46638,-0.20613 -0.002,-0.002 -0.61861,0.0285 0,0 -0.0498,-0.033 -0.0498,-0.0755 -0.0923,-0.11796 -0.12743,-0.085 -0.33993,-0.16998 -0.33993,-0.29745 -0.0849,-0.29741 -0.0424,-0.63738 0.16994,-0.93478 0.12751,-0.16995 0.29744,-0.2549 0.46743,-0.38236 0.93479,-0.50992 1.78454,-1.01982 2.71937,-1.48717 0.29736,-0.16999 0.59481,-0.33993 0.84975,-0.50991 3.8666,0.2974 7.69073,0.50991 11.55725,0.76484 0.12751,0 0.29745,0.0849 0.3824,-0.0425 1.48721,-2.12455 2.71941,-4.12154 3.69666,-6.41603 0.085,-0.25498 0.21246,-0.46739 0.29746,-0.72228 0.93474,-2.54942 1.52964,-5.48124 -0.085,-7.9881 -0.0425,-0.0425 -0.0849,-0.085 -0.1275,-0.12747 -0.0424,-0.085 -0.085,-0.2125 -0.16995,-0.29749 -2.42191,-2.93174 -6.161,-3.56911 -9.68768,-3.99403 l -0.38245,0 c -5.18374,-0.42488 -10.32501,0 -15.38131,0.93478 0.0425,2.25197 0.17,4.54641 0.12743,6.79839 -0.0424,0.38235 -0.42486,0.80731 -0.80726,0.80731 -32.41984,0 -64.83964,0.12747 -97.25939,0 -0.55238,0 -0.55238,-0.67985 -0.50991,-1.10472 0.12747,-1.4447 0.12747,-2.84683 0.085,-4.29153 -0.0425,-0.6798 -0.085,-1.35961 -0.21246,-2.03946 0,-0.085 -0.085,-0.16999 -0.12747,-0.16999 -10.24007,-0.33992 -20.43767,-0.59486 -30.635265,-0.84979 -1.019734,0.3824 -2.039468,0.59486 -3.059245,0.93479 -1.359702,0.3824 -2.591895,0.76484 -3.951598,1.14719 -0.807272,0.21246 -1.529642,0.38245 -2.336918,0.50992 -2.676885,0.33992 -5.396204,0.84979 -7.945583,-0.12747 -0.552386,-0.21246 -1.019777,-0.50987 -1.529642,-0.80736 -0.892312,-0.46735 -1.827094,-0.84979 -2.76188,-1.18968 -0.722327,-0.29741 -1.444651,-0.63737 -2.229465,-0.60669 0.205574,-0.17442 0.327619,-0.0354 0,0 0.01996,-0.0307 0.06249,-0.11563 -0.0225,-0.11563 -0.212416,-0.0425 -0.382401,0.0425 -0.594859,0.0425 -1.317187,0.25493 -2.464428,0.50991 -3.781615,0.76485 -1.912042,0.33992 -3.739094,0.59485 -5.60862,0.6798 -5.608709,0.25494 -11.174897,0.16999 -16.741087,0.25494 -0.594816,0.0425 -1.232193,0.0425 -1.827052,0.085 -2.676887,0.21246 -5.353731,0.50986 -7.860633,1.40218 -2.549378,1.14724 -4.801347,2.54937 -7.265775,4.12149 -0.127467,0.085 -0.212416,0.16999 -0.297451,0.25498 -0.254934,0.16994 -0.467349,0.25493 -0.679808,0.42487 -3.654146,2.67689 -6.8409,5.39625 -9.0078775,9.3478 -0.042431,0.12743 -0.1699412,0.21242 -0.2124588,0.29741 -0.2974079,0.55239 -0.5523413,1.10477 -0.7648002,1.69959 -0.4248746,1.27471 -0.8497923,2.67688 -0.7223256,3.99407 2.6344121,0.84984 5.4387231,1.06225 8.2005591,0.84984 0.169984,0 0.254933,-0.21251 0.339925,-0.34002 0.424875,-0.89222 0.807276,-1.74202 1.10477,-2.6768 0.08495,0.0425 0.169941,0.085 0.212415,0.21246 0.04247,0.21242 0.127467,0.3824 0.169942,0.59486 0.04252,0.46735 0.127466,0.89227 0.169984,1.35966 0.169984,2.59189 0.08499,5.18379 0.08499,7.77564 -0.12751,0.84979 0.127424,1.7421 -0.169984,2.59194 -0.04247,0.12742 -0.212459,0.12742 -0.297408,0.21241 -0.12751,0.16995 -0.169941,0.59486 0.04247,0.67986 0.08499,0.0424 0.212459,-0.0425 0.254934,0.0424 0.169984,0.3824 0.212416,0.76488 0.467349,1.10477 0.08503,0.12746 -0.08495,0.25493 0.04256,0.38244 0.127466,0.0849 0.297408,0.0849 0.382357,0.16994 0.297408,0.33993 0.424917,0.76484 0.3824,1.18972 0.169984,0.0425 0.382443,0.0425 0.552384,0.085 0.12751,0.25494 0.254934,0.55234 0.339926,0.84975 0.08499,0.38244 0.199075,0.7253 0.300851,1.08153 0.166541,0.0233 0.294051,-0.10427 0.336483,-0.18922 0.382443,-0.67981 0.382443,-1.48712 0.849835,-2.08203 0.169941,0.0425 0.254933,-0.0849 0.3824,-0.12746 -0.254933,-0.42488 0.297408,-0.72229 0.3824,-1.10473 0.08495,-0.33988 0.424918,-0.21241 0.594902,-0.33988 0.04243,-0.085 0.08495,-0.16999 0.127424,-0.25494 0.08495,-0.29745 0.212459,-0.55242 0.254934,-0.84983 0.04252,-0.29741 0,-0.63734 0,-0.93474 -0.169985,-0.085 -0.339926,-0.16999 -0.46735,-0.25498 0,-2.97425 0,-5.99111 0.0127,-8.96364 l 0,-1.02339 c 0.898507,0.0726 1.803985,0.089 2.704859,0.0801 0.863133,-0.009 1.726696,-0.0484 2.585741,-0.13466 0.226746,-0.0227 0.453277,-0.0488 0.679119,-0.0788 0.109909,-0.0145 0.247747,-0.0128 0.352019,-0.05 0.08805,-0.0313 0.177214,-0.10449 0.255794,-0.15479 0.318667,-0.2042 0.617323,-0.43947 0.890115,-0.7018 0.562583,-0.54115 1.079594,-1.23318 1.327771,-1.98353"
         style="fill:none;stroke:#1e1e1e;stroke-width:0.23670334;stroke-linecap:butt;stroke-linejoin:miter;stroke-miterlimit:4;stroke-dasharray:none;stroke-opacity:1"
         id="path3220"
         inkscape:connector-curvature="0" /></g><g
       transform="scale(1,-1)"
       style="font-style:normal;font-variant:normal;font-weight:normal;font-stretch:normal;font-size:23.20449638px;line-height:125%;font-family:'Nimbus Sans L';-inkscape-font-specification:'Nimbus Sans L, Normal';text-align:center;letter-spacing:0px;word-spacing:0px;writing-mode:lr-tb;text-anchor:middle;fill:#000000;fill-opacity:1;stroke:none;stroke-width:1px;stroke-linecap:butt;stroke-linejoin:miter;stroke-opacity:1"
       id="text4805"><path
         d="m 6.7513096,-452.38349 10.9178964,0 0,3.72541 -7.138102,0 0,3.61664 7.138102,0 0,3.65742 -7.138102,0 0,5.26181 7.138102,0 0,3.739 -10.9178964,0 0,-20.00028 z"
         style="font-style:normal;font-variant:normal;font-weight:bold;font-stretch:normal;font-size:27.84539413px;font-family:'Century Gothic';-inkscape-font-specification:'Century Gothic Bold';letter-spacing:1.77936924px;fill:#47c0bf;fill-opacity:1"
         id="path4150" /><path
         d="m 22.548551,-447.17607 3.725409,0 0,1.69954 q 0.951747,-1.04692 2.10744,-1.56358 1.169289,-0.51666 2.542523,-0.51666 1.386832,0 2.501735,0.67982 1.114904,0.67981 1.794723,1.98507 0.883765,-1.30526 2.161825,-1.98507 1.291656,-0.67982 2.814451,-0.67982 1.577181,0 2.773663,0.7342 1.196481,0.73421 1.713144,1.91709 0.530259,1.18289 0.530259,3.84778 l 0,8.67449 -3.739006,0 0,-7.5052 q 0,-2.51533 -0.625433,-3.3991 -0.625434,-0.89736 -1.876301,-0.89736 -0.951747,0 -1.713145,0.54385 -0.747801,0.54386 -1.114903,1.5092 -0.367103,0.95175 -0.367103,3.07279 l 0,6.67582 -3.739005,0 0,-7.16529 q 0,-1.98508 -0.299121,-2.86884 -0.285524,-0.89736 -0.870168,-1.33245 -0.584645,-0.43508 -1.414024,-0.43508 -0.924554,0 -1.685952,0.55745 -0.747801,0.54386 -1.128499,1.53639 -0.367103,0.99254 -0.367103,3.12717 l 0,6.58065 -3.725409,0 0,-14.79286 z"
         style="font-style:normal;font-variant:normal;font-weight:bold;font-stretch:normal;font-size:27.84539413px;font-family:'Century Gothic';-inkscape-font-specification:'Century Gothic Bold';letter-spacing:1.77936924px;fill:#47c0bf;fill-opacity:1"
         id="path4152" /><path
         d="m 50.487363,-447.17607 3.725409,0 0,1.69954 q 0.951747,-1.04692 2.10744,-1.56358 1.169289,-0.51666 2.542524,-0.51666 1.386831,0 2.501734,0.67982 1.114904,0.67981 1.794723,1.98507 0.883765,-1.30526 2.161825,-1.98507 1.291656,-0.67982 2.814451,-0.67982 1.577181,0 2.773663,0.7342 1.196482,0.73421 1.713144,1.91709 0.530259,1.18289 0.530259,3.84778 l 0,8.67449 -3.739005,0 0,-7.5052 q 0,-2.51533 -0.625434,-3.3991 -0.625434,-0.89736 -1.876301,-0.89736 -0.951747,0 -1.713144,0.54385 -0.747802,0.54386 -1.114904,1.5092 -0.367102,0.95175 -0.367102,3.07279 l 0,6.67582 -3.739006,0 0,-7.16529 q 0,-1.98508 -0.29912,-2.86884 -0.285524,-0.89736 -0.870169,-1.33245 -0.584644,-0.43508 -1.414024,-0.43508 -0.924554,0 -1.685951,0.55745 -0.747801,0.54386 -1.1285,1.53639 -0.367103,0.99254 -0.367103,3.12717 l 0,6.58065 -3.725409,0 0,-14.79286 z"
         style="font-style:normal;font-variant:normal;font-weight:bold;font-stretch:normal;font-size:27.84539413px;font-family:'Century Gothic';-inkscape-font-specification:'Century Gothic Bold';letter-spacing:1.77936924px;fill:#47c0bf;fill-opacity:1"
         id="path4154" /><path
         d="m 89.384857,-447.17607 3.698216,0 0,14.79286 -3.698216,0 0,-1.56358 q -1.087711,1.03332 -2.189018,1.4956 -1.08771,0.44868 -2.365771,0.44868 -2.868837,0 -4.96268,-2.21621 -2.093843,-2.22981 -2.093843,-5.53373 0,-3.42629 2.025861,-5.61531 2.025862,-2.18901 4.921891,-2.18901 1.332446,0 2.501735,0.50306 1.169289,0.50307 2.161825,1.5092 l 0,-1.63156 z m -3.902162,3.04559 q -1.726741,0 -2.868837,1.22367 -1.142096,1.21008 -1.142096,3.11357 0,1.91709 1.155692,3.15436 1.169289,1.23727 2.868837,1.23727 1.753934,0 2.909626,-1.21007 1.155693,-1.22368 1.155693,-3.19515 0,-1.93069 -1.155693,-3.12717 -1.155692,-1.19648 -2.923222,-1.19648 z"
         style="font-style:normal;font-variant:normal;font-weight:bold;font-stretch:normal;font-size:27.84539413px;font-family:'Century Gothic';-inkscape-font-specification:'Century Gothic Bold';letter-spacing:1.77936924px;fill:#47c0bf;fill-opacity:1"
         id="path4156" /><path
         d="m 98.615047,-447.17607 3.698213,0 0,1.50919 q 1.26447,-1.06051 2.2842,-1.46841 1.03332,-0.42148 2.10743,-0.42148 2.20262,0 3.73901,1.53639 1.29166,1.30525 1.29166,3.86137 l 0,9.7758 -3.67103,0 0,-6.48547 q 0,-2.6513 -0.24473,-3.52147 -0.23114,-0.87017 -0.82938,-1.31885 -0.58465,-0.46227 -1.45481,-0.46227 -1.1285,0 -1.94429,0.76139 -0.80218,0.7478 -1.1149,2.08025 -0.16316,0.69342 -0.16316,3.0048 l 0,5.94162 -3.698213,0 0,-14.79286 z"
         style="font-style:normal;font-variant:normal;font-weight:bold;font-stretch:normal;font-size:27.84539413px;font-family:'Century Gothic';-inkscape-font-specification:'Century Gothic Bold';letter-spacing:1.77936924px;fill:#47c0bf;fill-opacity:1"
         id="path4158" /><path
         d="m 117.07718,-447.17607 3.7526,0 0,7.1245 q 0,2.08025 0.28553,2.89603 0.28552,0.80219 0.91095,1.25087 0.63903,0.44868 1.56359,0.44868 0.92455,0 1.56358,-0.43509 0.65263,-0.44868 0.96535,-1.30525 0.23113,-0.63903 0.23113,-2.73287 l 0,-7.24687 3.72541,0 0,6.26793 q 0,3.87497 -0.61183,5.30259 -0.7478,1.74033 -2.20262,2.67849 -1.45481,0.92455 -3.69821,0.92455 -2.43376,0 -3.94296,-1.08771 -1.4956,-1.08771 -2.10743,-3.03199 -0.43509,-1.34605 -0.43509,-4.8947 l 0,-6.15916 z"
         style="font-style:normal;font-variant:normal;font-weight:bold;font-stretch:normal;font-size:27.84539413px;font-family:'Century Gothic';-inkscape-font-specification:'Century Gothic Bold';letter-spacing:1.77936924px;fill:#47c0bf;fill-opacity:1"
         id="path4160" /><path
         d="m 150.38656,-438.70553 -11.92403,0 q 0.25833,1.57718 1.37324,2.51533 1.1285,0.92456 2.86883,0.92456 2.08025,0 3.57585,-1.45482 l 3.12717,1.46841 q -1.16929,1.65876 -2.80086,2.46095 -1.63156,0.78859 -3.87496,0.78859 -3.48068,0 -5.6697,-2.18902 -2.18901,-2.20261 -2.18901,-5.50653 0,-3.3855 2.17542,-5.61531 2.18901,-2.2434 5.47934,-2.2434 3.49427,0 5.68329,2.2434 2.18902,2.22981 2.18902,5.90083 l -0.0136,0.70701 z m -3.72541,-2.92322 q -0.3671,-1.23727 -1.45481,-2.01227 -1.07412,-0.77499 -2.50174,-0.77499 -1.54999,0 -2.71927,0.87017 -0.73421,0.54385 -1.35964,1.91709 l 8.03546,0 z"
         style="font-style:normal;font-variant:normal;font-weight:bold;font-stretch:normal;font-size:27.84539413px;font-family:'Century Gothic';-inkscape-font-specification:'Century Gothic Bold';letter-spacing:1.77936924px;fill:#47c0bf;fill-opacity:1"
         id="path4162" /><path
         d="m 154.79003,-452.88656 3.71182,0 0,20.50335 -3.71182,0 0,-20.50335 z"
         style="font-style:normal;font-variant:normal;font-weight:bold;font-stretch:normal;font-size:27.84539413px;font-family:'Century Gothic';-inkscape-font-specification:'Century Gothic Bold';letter-spacing:1.77936924px;fill:#47c0bf;fill-opacity:1"
         id="path4164" /><path
         d="m 171.94063,-432.38321 0,-16.6669 2.61731,0 q 2.27739,0 3.33111,0.29459 1.4956,0.39656 2.37937,1.47294 0.88376,1.07638 0.88376,2.53799 0,0.95175 -0.40789,1.73354 -0.39656,0.77046 -1.30299,1.45028 1.51827,0.71381 2.22075,1.79019 0.70248,1.06505 0.70248,2.52666 0,1.40496 -0.72514,2.56066 -0.72514,1.15569 -1.86951,1.73353 -1.14436,0.56652 -3.16116,0.56652 l -4.66809,0 z m 3.17249,-13.64171 0,3.5124 0.69115,0 q 1.15569,0 1.71088,-0.4872 0.56652,-0.4872 0.56652,-1.32565 0,-0.78179 -0.53253,-1.235 -0.53252,-0.46455 -1.62023,-0.46455 l -0.81579,0 z m 0,6.34498 0,4.27154 0.79312,0 q 1.97148,0 2.6513,-0.49854 0.69115,-0.49853 0.69115,-1.45028 0,-1.07638 -0.80445,-1.69955 -0.80446,-0.62317 -2.67396,-0.62317 l -0.65716,0 z"
         style="fill:#eaeaea;fill-opacity:1"
         id="path4166" /><path
         d="m 186.11536,-444.7106 2.65129,0 0,1.55226 q 0.43056,-0.91776 1.14437,-1.39363 0.71381,-0.47588 1.56358,-0.47588 0.60051,0 1.25767,0.31725 l -0.96308,2.66263 q -0.54386,-0.27193 -0.8951,-0.27193 -0.71381,0 -1.21234,0.88376 -0.4872,0.88377 -0.4872,3.46708 l 0.0113,0.60051 0,4.98534 -3.07052,0 0,-12.32739 z"
         style="fill:#eaeaea;fill-opacity:1"
         id="path4168" /><path
         d="m 197.26491,-449.78658 q 0.81578,0 1.39363,0.58918 0.58918,0.58917 0.58918,1.42762 0,0.82711 -0.57785,1.41629 -0.57785,0.57784 -1.3823,0.57784 -0.82711,0 -1.41629,-0.58917 -0.57785,-0.60051 -0.57785,-1.45029 0,-0.81578 0.57785,-1.39363 0.57785,-0.57784 1.39363,-0.57784 z m -1.55225,5.07598 3.1045,0 0,12.32739 -3.1045,0 0,-12.32739 z"
         style="fill:#eaeaea;fill-opacity:1"
         id="path4170" /><path
         d="m 210.95244,-442.98839 -1.91482,1.91482 q -1.16703,-1.15569 -2.11877,-1.15569 -0.5212,0 -0.81579,0.22661 -0.29458,0.21527 -0.29458,0.54385 0,0.24927 0.18128,0.46455 0.19262,0.20394 0.92909,0.56651 l 1.13303,0.56652 q 1.79019,0.88376 2.45868,1.80152 0.66849,0.91776 0.66849,2.15276 0,1.6429 -1.21235,2.74194 -1.20101,1.09904 -3.22914,1.09904 -2.69661,0 -4.30552,-2.10744 l 1.90349,-2.07345 q 0.54386,0.6345 1.269,1.03106 0.73647,0.38523 1.30299,0.38523 0.61183,0 0.98574,-0.29459 0.3739,-0.29459 0.3739,-0.67982 0,-0.71381 -1.34831,-1.39363 l -1.04239,-0.52119 q -2.99121,-1.50693 -2.99121,-3.773 0,-1.46161 1.12171,-2.49267 1.13303,-1.04239 2.88923,-1.04239 1.20101,0 2.25473,0.53253 1.06505,0.52119 1.80152,1.50693 z"
         style="fill:#eaeaea;fill-opacity:1"
         id="path4172" /><path
         d="m 215.757,-449.25406 3.08185,0 0,4.54346 1.83551,0 0,2.66263 -1.83551,0 0,9.66476 -3.08185,0 0,-9.66476 -1.58624,0 0,-2.66263 1.58624,0 0,-4.54346 z"
         style="fill:#eaeaea;fill-opacity:1"
         id="path4174" /><path
         d="m 229.93175,-445.02785 q 1.74487,0 3.27446,0.87244 1.54092,0.87243 2.40203,2.36803 0.8611,1.49561 0.8611,3.22915 0,1.74487 -0.87243,3.26313 -0.86111,1.51826 -2.35671,2.37937 -1.4956,0.84977 -3.29712,0.84977 -2.6513,0 -4.53213,-1.88083 -1.8695,-1.89217 -1.8695,-4.58878 0,-2.88923 2.11877,-4.81539 1.85817,-1.67689 4.27153,-1.67689 z m 0.0453,2.9119 q -1.43895,0 -2.40203,1.00839 -0.95175,0.99707 -0.95175,2.56066 0,1.6089 0.94042,2.60597 0.95175,0.99707 2.40203,0.99707 1.45028,0 2.41336,-1.0084 0.96307,-1.0084 0.96307,-2.59464 0,-1.58625 -0.95174,-2.57199 -0.94042,-0.99706 -2.41336,-0.99706 z"
         style="fill:#eaeaea;fill-opacity:1"
         id="path4176" /><path
         d="m 240.45813,-449.46933 3.09318,0 0,17.08612 -3.09318,0 0,-17.08612 z"
         style="fill:#eaeaea;fill-opacity:1"
         id="path4178" /></g></g></svg>